<?xml version="1.0" encoding="utf-8"?>
<!-- Generator: Adobe Illustrator 18.1.1, SVG Export Plug-In . SVG Version: 6.00 Build 0)  -->
<!DOCTYPE svg PUBLIC "-//W3C//DTD SVG 1.1//EN" "http://www.w3.org/Graphics/SVG/1.1/DTD/svg11.dtd">
<svg version="1.1" id="Layer_1" xmlns="http://www.w3.org/2000/svg" xmlns:xlink="http://www.w3.org/1999/xlink" x="0px" y="0px"
	 viewBox="0 0 360 360" enable-background="new 0 0 360 360" xml:space="preserve">
<g>
	<path d="M36.6,80.9h15.8L65,114l13.3-33.1h16l9.4,61.9H87.5L83,107.2h-0.2L68,142.8h-6.4l-14.2-35.6h-0.2l-5.2,35.6h-16L36.6,80.9z
		"/>
	<path d="M177.5,129.2h19.3v13.6h-35.4V80.9h16.1V129.2z"/>
	<path d="M203.9,80.9h15.8l12.6,33.1l13.3-33.1h16l9.4,61.9h-16.1l-4.5-35.6h-0.2l-14.9,35.6H229l-14.2-35.6h-0.2l-5.2,35.6h-16
		L203.9,80.9z"/>
	<path fill="#58595B" d="M112.7,168.8v29c0,6.6-0.3,13.2-5.4,18.2c-4.3,4.2-11.1,5.7-17.1,5.7c-6,0-12.8-1.5-17.1-5.7
		c-5.1-5-5.4-11.6-5.4-18.2v-29h13.4v27.2c0,6.7,0.5,14,9.1,14c8.6,0,9.1-7.3,9.1-14v-27.2H112.7z"/>
	<path fill="#58595B" d="M144,182c-2.5-2.1-5.6-3.4-8.9-3.4c-2.5,0-5.7,1.4-5.7,4.3c0,3,3.6,4.2,6,4.9l3.4,1
		c7.2,2.1,12.7,5.7,12.7,14.1c0,5.1-1.2,10.4-5.3,13.9c-4,3.4-9.4,4.9-14.6,4.9c-6.5,0-12.9-2.2-18.1-5.9l5.7-10.8
		c3.4,2.9,7.3,5.3,11.9,5.3c3.1,0,6.5-1.6,6.5-5.2c0-3.8-5.3-5.1-8.1-5.9c-8.4-2.4-14-4.6-14-14.6c0-10.5,7.5-17.3,17.8-17.3
		c5.2,0,11.6,1.6,16.1,4.2L144,182z"/>
	<path fill="#58595B" d="M167.1,220.3h-13.4v-51.6h13.4V220.3z"/>
	<path fill="#58595B" d="M173.2,168.8h13.4l24.6,31.5h0.1v-31.5h13.4v51.6h-13.4l-24.6-31.6h-0.1v31.6h-13.4V168.8z"/>
	<path fill="#58595B" d="M242.7,180.1v8.6h15.1v11.4h-15.1v8.9h15.9v11.4h-29.3v-51.6h29.3v11.4H242.7z"/>
	<path fill="#58595B" d="M289.8,182c-2.5-2.1-5.6-3.4-8.9-3.4c-2.5,0-5.7,1.4-5.7,4.3c0,3,3.6,4.2,6,4.9l3.4,1
		c7.2,2.1,12.7,5.7,12.7,14.1c0,5.1-1.2,10.4-5.3,13.9c-4,3.4-9.4,4.9-14.6,4.9c-6.5,0-12.9-2.2-18.1-5.9l5.7-10.8
		c3.4,2.9,7.3,5.3,11.9,5.3c3.1,0,6.5-1.6,6.5-5.2c0-3.8-5.3-5.1-8.1-5.9c-8.4-2.4-14-4.6-14-14.6c0-10.5,7.5-17.3,17.8-17.3
		c5.2,0,11.6,1.6,16.1,4.2L289.8,182z"/>
	<path fill="#58595B" d="M327.8,182c-2.5-2.1-5.6-3.4-8.9-3.4c-2.5,0-5.7,1.4-5.7,4.3c0,3,3.6,4.2,6,4.9l3.4,1
		c7.2,2.1,12.7,5.7,12.7,14.1c0,5.1-1.2,10.4-5.3,13.9c-4,3.4-9.4,4.9-14.6,4.9c-6.5,0-12.9-2.2-18.1-5.9l5.7-10.8
		c3.4,2.9,7.3,5.3,11.9,5.3c3.1,0,6.5-1.6,6.5-5.2c0-3.8-5.3-5.1-8.1-5.9c-8.4-2.4-14-4.6-14-14.6c0-10.5,7.5-17.3,17.8-17.3
		c5.2,0,11.6,1.6,16.1,4.2L327.8,182z"/>
	<path fill="#58595B" d="M72.4,240.1v7h12.3v9.2H72.4v7.2h12.9v9.2H61.5v-41.9h23.8v9.2H72.4z"/>
	<path fill="#58595B" d="M138.6,263.5h13.1v9.2h-23.9v-41.9h10.9V263.5z"/>
	<path fill="#58595B" d="M177.3,240.1v7h12.3v9.2h-12.3v7.2h12.9v9.2h-23.8v-41.9h23.8v9.2H177.3z"/>
	<path fill="#58595B" d="M216.7,241.7c-2-1.7-4.6-2.8-7.2-2.8c-2,0-4.7,1.2-4.7,3.5c0,2.4,2.9,3.4,4.8,4l2.8,0.8
		c5.8,1.7,10.3,4.7,10.3,11.4c0,4.2-1,8.4-4.3,11.3c-3.3,2.8-7.7,3.9-11.9,3.9c-5.3,0-10.4-1.8-14.7-4.8l4.7-8.8
		c2.7,2.4,5.9,4.3,9.7,4.3c2.6,0,5.3-1.3,5.3-4.2c0-3.1-4.3-4.1-6.6-4.8c-6.8-1.9-11.3-3.7-11.3-11.8c0-8.5,6.1-14.1,14.4-14.1
		c4.2,0,9.4,1.3,13.1,3.4L216.7,241.7z"/>
	<path fill="#58595B" d="M242.3,272.8h-10.9v-32.7h-9v-9.2h28.9v9.2h-9V272.8z"/>
	<path fill="#58595B" d="M298.4,272.8h-10.9v-32.7h-9v-9.2h28.9v9.2h-9V272.8z"/>
	<path fill="#58595B" d="M320.1,240.1v7h12.3v9.2h-12.3v7.2H333v9.2h-23.8v-41.9H333v9.2H320.1z"/>
</g>
<rect x="26" y="152" fill="#231F20" width="307" height="8"/>
<g>
	<polygon points="139.7,80.9 122.1,80.9 98.3,142.8 115.4,142.8 119.6,132 130.6,132 130.6,119.7 124.1,119.7 130.7,100 130.9,100 
		137.4,119.7 130.6,119.7 130.6,132 141.8,132 145.8,142.8 163,142.8 	"/>
</g>
<g>
	<path d="M299.1,78.8L299.1,78.8l0,15.6h0c9.6,0,17.5,7.8,17.5,16.3c0,10.7-7.9,18.5-17.5,18.5c-9.6,0-17.5-7.8-17.5-18.5
		c0-8.5,7.9-16.3,17.5-16.3L299.1,78.8c-17.8,0-34.2,13.1-34.2,31.8c0,20,14.4,34.1,34.2,34.1c19.9,0,34.2-14.1,34.2-34.1
		C333.3,92,316.9,78.8,299.1,78.8z"/>
</g>
<g>
	<path fill="none" d="M42,189c3.6,0,7.3-0.6,7.3-5c0-4.7-4.2-5-7.8-5h-1v4.5v5.5H42z"/>
	<path fill="#58595B" d="M55.9,192.8v-0.1c4.2-2.1,5.7-5.9,5.7-10.5c0-9.9-6.2-13.4-15.3-13.4H27.1v14.7h13.4V179h1
		c3.6,0,7.8,0.3,7.8,5c0,4.4-3.7,5-7.3,5h-1.5v-5.5H27.1v21h13.4V199h1.4c4.4,0,11-0.6,11,5.6c0,5.7-6.7,5.5-10.7,5.5h-1.7v-5.5
		H27.1v15.8h20.7c9.4,0,18.7-3.6,18.7-14.4C66.5,198.8,63.3,193.8,55.9,192.8z"/>
</g>
<g>
	<path fill="#58595B" d="M48.7,255.6c5.9-1.1,9.2-6.1,9.2-11.8c0-8.9-6.3-12.9-14.6-12.9H27v14h10.9v-5.7H39c3.6,0,7.6,0.7,7.6,5.2
		c0,4.6-4,5.2-7.6,5.2h-1.1v-4.7H27v27.8h10.9v-16.1H38l10.3,16.1h13.6L48.7,255.6z"/>
</g>
<g>
	<polygon fill="none" points="107,243.8 106.9,243.8 106.8,244 106.8,257.2 111.4,257.2 	"/>
	<polygon fill="#58595B" points="112.9,230.9 101,230.9 84.9,272.8 96.5,272.8 99.4,265.5 106.8,265.5 106.8,257.2 102.4,257.2 
		106.8,244 106.8,231.4 106.8,244 106.9,243.8 107,243.8 111.4,257.2 106.8,257.2 106.8,265.5 114.4,265.5 117.1,272.8 128.7,272.8 
			"/>
</g>
<g>
	<polygon fill="#58595B" points="271.1,230.9 259.2,230.9 243.1,272.8 254.6,272.8 257.5,265.5 264.9,265.5 264.9,257.2 
		260.5,257.2 265,243.8 265.1,243.8 269.6,257.2 264.9,257.2 264.9,265.5 272.5,265.5 275.2,272.8 286.8,272.8 	"/>
</g>
</svg>
